<svg width="516" height="90" viewBox="0 0 516 90" fill="none" xmlns="http://www.w3.org/2000/svg">
<path d="M27.8677 18.4067C21.1477 18.4067 16.0597 21.6707 12.7957 26.1827V0.742725H0.699711V69.0947H12.7957V41.3507C12.7957 32.5187 18.5557 28.8707 23.8357 28.8707C29.9797 28.8707 33.1477 31.9427 33.1477 38.2787V69.0947H45.2437V36.2627C45.2437 24.4547 38.2357 18.4067 27.8677 18.4067ZM83.0692 19.5587L79.0372 32.0387C76.3492 40.7747 73.6612 49.7987 71.0692 59.5907C68.5732 49.8947 65.8852 40.5827 63.1972 31.9427L59.1652 19.5587H46.1092L60.5092 60.2627C61.6612 63.5267 62.8132 67.2707 62.8132 70.2467C62.8132 74.3747 60.6052 78.2147 54.6532 78.2147H50.0452V87.7187C51.5812 87.9107 53.0212 88.0067 55.3252 88.0067C67.3252 88.0067 72.7012 84.1667 76.6372 73.1267L95.7412 19.5587H83.0692ZM125.941 18.4067C118.741 18.4067 113.461 21.4787 110.101 26.6627V19.5587H98.4847V87.9107H110.581V62.6627C113.941 67.4627 119.029 70.2467 125.941 70.2467C139.573 70.2467 148.117 60.0707 148.117 44.3267C148.117 28.5827 139.573 18.4067 125.941 18.4067ZM123.061 60.2627C115.189 60.2627 110.293 54.7907 110.293 44.3267C110.293 33.8627 115.189 28.3907 123.061 28.3907C130.933 28.3907 135.829 33.4787 135.829 43.9427C135.829 54.4067 130.933 60.2627 123.061 60.2627ZM200.504 45.1907C200.504 29.4467 191.192 18.4067 176.024 18.4067C161.336 18.4067 151.544 28.7747 151.544 44.3267C151.544 60.1667 161.624 70.2467 176.216 70.2467C188.12 70.2467 196.76 63.8147 199.256 53.7347H187.64C185.816 58.1507 182.072 60.8387 176.312 60.8387C169.304 60.8387 164.312 56.9027 163.448 48.0707H200.504V45.1907ZM175.928 27.8147C183.128 27.8147 187.448 32.6147 188.408 39.6227H163.544C164.696 31.4627 169.496 27.8147 175.928 27.8147ZM232.891 18.7907C225.211 18.7907 220.507 22.8227 218.107 28.3907V19.5587H206.395V69.0947H218.491V43.9427C218.491 34.5347 223.867 30.1187 232.795 30.1187H235.867V18.9827C234.811 18.7907 233.947 18.7907 232.891 18.7907Z" fill="url(#paint0_linear_210_2054)"/>
<path d="M276.749 19.5587V26.3747C273.485 21.3827 268.301 18.4067 261.101 18.4067C247.565 18.4067 238.829 28.4867 238.829 43.6547C238.829 58.7267 247.757 68.9027 261.197 68.9027C268.109 68.9027 273.101 66.1187 276.365 61.5107V67.7507C276.365 75.5267 272.141 79.7507 264.173 79.7507C257.549 79.7507 253.709 77.0627 253.133 71.7827H241.229C241.997 82.0547 249.677 89.0627 263.981 89.0627C280.109 89.0627 288.461 80.5187 288.461 67.4627V19.5587H276.749ZM263.885 58.9187C256.109 58.9187 251.213 53.3507 251.213 43.7507C251.213 34.1507 256.109 28.3907 263.885 28.3907C271.757 28.3907 276.653 33.7667 276.653 43.6547C276.653 53.4467 271.757 58.9187 263.885 58.9187ZM296.305 69.0947H308.401V0.742725H296.305V69.0947ZM360.772 69.0947C359.428 67.1747 358.756 63.2387 358.756 59.6867V33.2867C358.756 24.3587 352.9 18.4067 338.116 18.4067C322.66 18.4067 316.516 24.8387 315.844 35.3027H327.748C328.228 29.2547 331.108 27.4307 338.02 27.4307C345.028 27.4307 347.044 29.7347 347.044 33.5747C347.044 37.2227 344.644 38.6627 340.036 39.2387L332.548 39.9107C318.532 41.2547 313.54 47.1107 313.54 55.3667C313.54 64.9667 320.836 70.2467 331.396 70.2467C338.692 70.2467 344.068 67.6547 347.332 63.0467C347.524 65.4467 347.908 67.7507 348.676 69.0947H360.772ZM334.276 61.6067C328.708 61.6067 325.924 59.0147 325.924 54.8867C325.924 50.9507 328.132 48.5507 334.852 47.7827L341.38 47.0147C343.972 46.7267 345.796 46.1507 347.044 44.9987V49.5107C347.044 58.1507 340.708 61.6067 334.276 61.6067ZM393.226 18.4067C386.218 18.4067 380.938 21.9587 377.77 26.6627V19.5587H366.058V69.0947H378.154V41.3507C378.154 32.5187 383.914 28.8707 389.194 28.8707C395.338 28.8707 398.506 31.9427 398.506 38.2787V69.0947H410.602V36.2627C410.602 24.4547 403.594 18.4067 393.226 18.4067ZM440.785 70.2467C453.457 70.2467 462.673 62.7587 464.017 50.6627H451.921C450.961 57.1907 446.257 60.1667 440.785 60.1667C433.777 60.1667 428.689 55.1747 428.689 44.3267C428.689 33.4787 433.585 28.4867 440.785 28.4867C446.161 28.4867 450.577 31.2707 451.729 37.4147H463.825C462.385 25.7987 453.745 18.4067 440.785 18.4067C426.001 18.4067 416.305 28.4867 416.305 44.3267C416.305 60.1667 426.097 70.2467 440.785 70.2467ZM515.658 45.1907C515.658 29.4467 506.346 18.4067 491.178 18.4067C476.49 18.4067 466.698 28.7747 466.698 44.3267C466.698 60.1667 476.778 70.2467 491.37 70.2467C503.274 70.2467 511.914 63.8147 514.41 53.7347H502.794C500.97 58.1507 497.226 60.8387 491.466 60.8387C484.458 60.8387 479.466 56.9027 478.602 48.0707H515.658V45.1907ZM491.082 27.8147C498.282 27.8147 502.602 32.6147 503.562 39.6227H478.698C479.85 31.4627 484.65 27.8147 491.082 27.8147Z" fill="white"/>
<defs>
<linearGradient id="paint0_linear_210_2054" x1="564.5" y1="30" x2="116.5" y2="30" gradientUnits="userSpaceOnUse">
<stop offset="0.432291" stop-color="#F0F0FF"/>
<stop offset="1" stop-color="#02BAFF"/>
</linearGradient>
</defs>
</svg>
